<svg width="761" height="826" viewBox="0 0 761 826" fill="none" xmlns="http://www.w3.org/2000/svg">
<path d="M461.812 630.929L458.109 629.421L456.6 633.124L382.518 814.844L306.578 633.817L305.029 630.126L301.34 631.677L120.183 707.807L194.501 526.077L196.017 522.369L192.307 520.858L10.4581 446.819L191.375 370.692L195.064 369.14L193.51 365.452L117.334 184.649L299.188 258.691L302.891 260.198L304.4 256.496L378.487 74.7623L454.668 255.807L456.219 259.494L459.906 257.942L640.828 181.813L566.741 363.547L565.231 367.251L568.935 368.761L750.548 442.798L569.625 518.928L565.936 520.48L567.49 524.168L643.666 704.97L461.812 630.929Z" stroke="#CACACA" stroke-opacity="0.14" stroke-width="8"/>
<path d="M461.812 566.619L458.109 565.111L456.6 568.814L382.518 750.534L306.578 569.507L305.029 565.816L301.34 567.367L120.183 643.497L194.501 461.767L196.017 458.059L192.307 456.548L10.4581 382.509L191.375 306.382L195.064 304.83L193.51 301.142L117.334 120.34L299.188 194.381L302.891 195.889L304.4 192.186L378.487 10.4524L454.668 191.497L456.219 195.184L459.906 193.632L640.828 117.503L566.741 299.237L565.231 302.941L568.935 304.451L750.548 378.489L569.625 454.618L565.936 456.17L567.49 459.858L643.666 640.66L461.812 566.619Z" stroke="#CACACA" stroke-opacity="0.14" stroke-width="8"/>
</svg>
