<svg width="600" height="535" viewBox="0 0 600 535" fill="none" xmlns="http://www.w3.org/2000/svg">
<path d="M300 0C400 0 500 17 600 50C600 284 602 401.5 300 534.5C-1.99966 401.5 0.000341752 284 0.000341752 50C100 17 200 0 300 0Z" fill="#454545"/>
<path d="M182.768 85.824V189H175.784C174.68 189 173.744 188.808 172.976 188.424C172.256 188.04 171.536 187.392 170.816 186.48L111.128 108.72C111.224 109.92 111.296 111.096 111.344 112.248C111.392 113.4 111.416 114.48 111.416 115.488V189H99.176V85.824H106.376C107 85.824 107.528 85.872 107.96 85.968C108.392 86.016 108.776 86.136 109.112 86.328C109.448 86.472 109.784 86.712 110.12 87.048C110.456 87.336 110.816 87.72 111.2 88.2L170.888 165.888C170.792 164.64 170.696 163.44 170.6 162.288C170.552 161.088 170.528 159.96 170.528 158.904V85.824H182.768ZM263.937 150.696L247.737 108.72C247.257 107.472 246.753 106.032 246.225 104.4C245.697 102.72 245.193 100.944 244.713 99.072C243.705 102.96 242.673 106.2 241.617 108.792L225.417 150.696H263.937ZM293.025 189H282.225C280.977 189 279.969 188.688 279.201 188.064C278.433 187.44 277.857 186.648 277.473 185.688L267.825 160.776H221.529L211.881 185.688C211.593 186.552 211.041 187.32 210.225 187.992C209.409 188.664 208.401 189 207.201 189H196.401L237.657 85.824H251.769L293.025 189ZM320.566 189H306.598V85.824H320.566V189ZM430.837 85.824L388.789 189H376.261L334.213 85.824H345.373C346.621 85.824 347.629 86.136 348.397 86.76C349.165 87.384 349.741 88.176 350.125 89.136L379.213 161.928C379.837 163.56 380.437 165.336 381.013 167.256C381.637 169.176 382.189 171.192 382.669 173.304C383.149 171.192 383.653 169.176 384.181 167.256C384.709 165.336 385.285 163.56 385.909 161.928L414.925 89.136C415.213 88.32 415.765 87.576 416.581 86.904C417.445 86.184 418.477 85.824 419.677 85.824H430.837ZM508.058 177.624L507.986 189H444.41V85.824H507.986V97.2H458.378V131.472H498.554V142.416H458.378V177.624H508.058Z" fill="white"/>
<path d="M194.392 314.912C198.376 314.912 201.808 314.456 204.688 313.544C207.568 312.632 209.92 311.36 211.744 309.728C213.616 308.048 214.984 306.08 215.848 303.824C216.712 301.52 217.144 299 217.144 296.264C217.144 290.936 215.248 286.736 211.456 283.664C207.664 280.544 201.976 278.984 194.392 278.984H172.072V314.912H194.392ZM172.072 233.84V269.048H190.504C194.44 269.048 197.848 268.616 200.728 267.752C203.656 266.888 206.056 265.688 207.928 264.152C209.848 262.616 211.264 260.768 212.176 258.608C213.088 256.4 213.544 254 213.544 251.408C213.544 245.312 211.72 240.872 208.072 238.088C204.424 235.256 198.76 233.84 191.08 233.84H172.072ZM191.08 222.824C197.416 222.824 202.864 223.448 207.424 224.696C212.032 225.944 215.8 227.72 218.728 230.024C221.704 232.328 223.888 235.16 225.28 238.52C226.672 241.832 227.368 245.576 227.368 249.752C227.368 252.296 226.96 254.744 226.144 257.096C225.376 259.4 224.2 261.56 222.616 263.576C221.032 265.592 219.016 267.416 216.568 269.048C214.168 270.632 211.336 271.928 208.072 272.936C215.656 274.376 221.344 277.088 225.136 281.072C228.976 285.008 230.896 290.192 230.896 296.624C230.896 300.992 230.08 304.976 228.448 308.576C226.864 312.176 224.512 315.272 221.392 317.864C218.32 320.456 214.528 322.472 210.016 323.912C205.504 325.304 200.368 326 194.608 326H158.176V222.824H191.08ZM265.238 326H251.27V222.824H265.238V326ZM346.421 287.696L330.221 245.72C329.741 244.472 329.237 243.032 328.709 241.4C328.181 239.72 327.677 237.944 327.197 236.072C326.189 239.96 325.157 243.2 324.101 245.792L307.901 287.696H346.421ZM375.509 326H364.709C363.461 326 362.453 325.688 361.685 325.064C360.917 324.44 360.341 323.648 359.957 322.688L350.309 297.776H304.013L294.365 322.688C294.077 323.552 293.525 324.32 292.709 324.992C291.893 325.664 290.885 326 289.685 326H278.885L320.141 222.824H334.253L375.509 326ZM441.858 238.952C441.426 239.672 440.946 240.224 440.418 240.608C439.938 240.944 439.338 241.112 438.618 241.112C437.802 241.112 436.842 240.704 435.738 239.888C434.634 239.072 433.242 238.184 431.562 237.224C429.93 236.216 427.938 235.304 425.586 234.488C423.282 233.672 420.474 233.264 417.162 233.264C414.042 233.264 411.282 233.696 408.882 234.56C406.53 235.376 404.538 236.504 402.906 237.944C401.322 239.384 400.122 241.088 399.306 243.056C398.49 244.976 398.082 247.064 398.082 249.32C398.082 252.2 398.778 254.6 400.17 256.52C401.61 258.392 403.482 260 405.786 261.344C408.138 262.688 410.778 263.864 413.706 264.872C416.682 265.832 419.706 266.84 422.778 267.896C425.898 268.952 428.922 270.152 431.85 271.496C434.826 272.792 437.466 274.448 439.77 276.464C442.122 278.48 443.994 280.952 445.386 283.88C446.826 286.808 447.546 290.408 447.546 294.68C447.546 299.192 446.778 303.44 445.242 307.424C443.706 311.36 441.45 314.792 438.474 317.72C435.546 320.648 431.922 322.952 427.602 324.632C423.33 326.312 418.458 327.152 412.986 327.152C406.266 327.152 400.17 325.952 394.698 323.552C389.226 321.104 384.546 317.816 380.658 313.688L384.69 307.064C385.074 306.536 385.53 306.104 386.058 305.768C386.634 305.384 387.258 305.192 387.93 305.192C388.554 305.192 389.25 305.456 390.018 305.984C390.834 306.464 391.746 307.088 392.754 307.856C393.762 308.624 394.914 309.464 396.21 310.376C397.506 311.288 398.97 312.128 400.602 312.896C402.282 313.664 404.178 314.312 406.29 314.84C408.402 315.32 410.778 315.56 413.418 315.56C416.73 315.56 419.682 315.104 422.274 314.192C424.866 313.28 427.05 312.008 428.826 310.376C430.65 308.696 432.042 306.704 433.002 304.4C433.962 302.096 434.442 299.528 434.442 296.696C434.442 293.576 433.722 291.032 432.282 289.064C430.89 287.048 429.042 285.368 426.738 284.024C424.434 282.68 421.794 281.552 418.818 280.64C415.842 279.68 412.818 278.72 409.746 277.76C406.674 276.752 403.65 275.6 400.674 274.304C397.698 273.008 395.058 271.328 392.754 269.264C390.45 267.2 388.578 264.632 387.138 261.56C385.746 258.44 385.05 254.6 385.05 250.04C385.05 246.392 385.746 242.864 387.138 239.456C388.578 236.048 390.642 233.024 393.33 230.384C396.066 227.744 399.402 225.632 403.338 224.048C407.322 222.464 411.882 221.672 417.018 221.672C422.778 221.672 428.01 222.584 432.714 224.408C437.466 226.232 441.642 228.872 445.242 232.328L441.858 238.952Z" fill="white"/>
<circle cx="300" cy="432" r="56" fill="white"/>
<path fill-rule="evenodd" clip-rule="evenodd" d="M312.14 460.188L339.97 471.519L328.312 443.849L356 432.198L328.206 420.867L339.544 393.055L311.856 404.706L300.198 377L288.86 404.812L261.03 393.481L272.688 421.151L245 432.802L272.83 444.133L261.456 471.945L289.18 460.294L300.802 488L312.14 460.188Z" fill="#454545"/>
</svg>
