<svg width="71" height="77" viewBox="0 0 71 77" fill="none" xmlns="http://www.w3.org/2000/svg">
<path d="M44.4539 55.5055L40.7509 53.9979L39.2415 57.7002L35.6404 66.5338L31.9476 57.731L30.3993 54.0401L26.7094 55.5908L17.887 59.2983L21.5035 50.4549L23.0199 46.7468L19.3095 45.2361L10.458 41.6322L19.2616 37.9279L22.9502 36.3758L21.3964 32.6879L17.6889 23.8883L26.5461 27.4945L30.2491 29.0021L31.7585 25.2998L35.3653 16.4524L39.0768 25.273L40.6282 28.9599L44.3151 27.4085L53.1244 23.7017L49.5176 32.5492L48.0075 36.2532L51.7116 37.7632L60.5476 41.3654L51.7384 45.0721L48.0498 46.6242L49.6036 50.3121L53.3111 59.1117L44.4539 55.5055Z" stroke="#ADADAD" stroke-width="8"/>
<path d="M44.4539 49.5055L40.7509 47.9979L39.2415 51.7002L35.6404 60.5338L31.9476 51.731L30.3993 48.0401L26.7094 49.5908L17.887 53.2983L21.5035 44.4549L23.0199 40.7468L19.3095 39.2361L10.458 35.6322L19.2616 31.9279L22.9502 30.3758L21.3964 26.6879L17.6889 17.8883L26.5461 21.4945L30.2491 23.0021L31.7585 19.2998L35.3653 10.4524L39.0768 19.273L40.6282 22.9599L44.3151 21.4085L53.1244 17.7017L49.5176 26.5492L48.0075 30.2532L51.7116 31.7632L60.5476 35.3654L51.7384 39.0721L48.0498 40.6242L49.6036 44.3121L53.3111 53.1117L44.4539 49.5055Z" stroke="#ADADAD" stroke-width="8"/>
</svg>
