<svg width="1006" height="190" viewBox="0 0 1006 190" fill="none" xmlns="http://www.w3.org/2000/svg">
<path d="M107 0C142.667 0 178.333 6.04303 214 17.7736C214 100.954 214.713 142.722 107 190C-0.713213 142.722 0.000121891 100.954 0.000121891 17.7736C35.6667 6.04303 71.3334 0 107 0Z" fill="#454545"/>
<path d="M347.768 41.824V145H340.784C339.68 145 338.744 144.808 337.976 144.424C337.256 144.04 336.536 143.392 335.816 142.48L276.128 64.72C276.224 65.92 276.296 67.096 276.344 68.248C276.392 69.4 276.416 70.48 276.416 71.488V145H264.176V41.824H271.376C272 41.824 272.528 41.872 272.96 41.968C273.392 42.016 273.776 42.136 274.112 42.328C274.448 42.472 274.784 42.712 275.12 43.048C275.456 43.336 275.816 43.72 276.2 44.2L335.888 121.888C335.792 120.64 335.696 119.44 335.6 118.288C335.552 117.088 335.528 115.96 335.528 114.904V41.824H347.768ZM428.937 106.696L412.737 64.72C412.257 63.472 411.753 62.032 411.225 60.4C410.697 58.72 410.193 56.944 409.713 55.072C408.705 58.96 407.673 62.2 406.617 64.792L390.417 106.696H428.937ZM458.025 145H447.225C445.977 145 444.969 144.688 444.201 144.064C443.433 143.44 442.857 142.648 442.473 141.688L432.825 116.776H386.529L376.881 141.688C376.593 142.552 376.041 143.32 375.225 143.992C374.409 144.664 373.401 145 372.201 145H361.401L402.657 41.824H416.769L458.025 145ZM485.566 145H471.598V41.824H485.566V145ZM595.837 41.824L553.789 145H541.261L499.213 41.824H510.373C511.621 41.824 512.629 42.136 513.397 42.76C514.165 43.384 514.741 44.176 515.125 45.136L544.213 117.928C544.837 119.56 545.437 121.336 546.013 123.256C546.637 125.176 547.189 127.192 547.669 129.304C548.149 127.192 548.653 125.176 549.181 123.256C549.709 121.336 550.285 119.56 550.909 117.928L579.925 45.136C580.213 44.32 580.765 43.576 581.581 42.904C582.445 42.184 583.477 41.824 584.677 41.824H595.837ZM673.058 133.624L672.986 145H609.41V41.824H672.986V53.2H623.378V87.472H663.554V98.416H623.378V133.624H673.058Z" fill="white"/>
<path d="M745.392 133.912C749.376 133.912 752.808 133.456 755.688 132.544C758.568 131.632 760.92 130.36 762.744 128.728C764.616 127.048 765.984 125.08 766.848 122.824C767.712 120.52 768.144 118 768.144 115.264C768.144 109.936 766.248 105.736 762.456 102.664C758.664 99.544 752.976 97.984 745.392 97.984H723.072V133.912H745.392ZM723.072 52.84V88.048H741.504C745.44 88.048 748.848 87.616 751.728 86.752C754.656 85.888 757.056 84.688 758.928 83.152C760.848 81.616 762.264 79.768 763.176 77.608C764.088 75.4 764.544 73 764.544 70.408C764.544 64.312 762.72 59.872 759.072 57.088C755.424 54.256 749.76 52.84 742.08 52.84H723.072ZM742.08 41.824C748.416 41.824 753.864 42.448 758.424 43.696C763.032 44.944 766.8 46.72 769.728 49.024C772.704 51.328 774.888 54.16 776.28 57.52C777.672 60.832 778.368 64.576 778.368 68.752C778.368 71.296 777.96 73.744 777.144 76.096C776.376 78.4 775.2 80.56 773.616 82.576C772.032 84.592 770.016 86.416 767.568 88.048C765.168 89.632 762.336 90.928 759.072 91.936C766.656 93.376 772.344 96.088 776.136 100.072C779.976 104.008 781.896 109.192 781.896 115.624C781.896 119.992 781.08 123.976 779.448 127.576C777.864 131.176 775.512 134.272 772.392 136.864C769.32 139.456 765.528 141.472 761.016 142.912C756.504 144.304 751.368 145 745.608 145H709.176V41.824H742.08ZM816.238 145H802.27V41.824H816.238V145ZM897.421 106.696L881.221 64.72C880.741 63.472 880.237 62.032 879.709 60.4C879.181 58.72 878.677 56.944 878.197 55.072C877.189 58.96 876.157 62.2 875.101 64.792L858.901 106.696H897.421ZM926.509 145H915.709C914.461 145 913.453 144.688 912.685 144.064C911.917 143.44 911.341 142.648 910.957 141.688L901.309 116.776H855.013L845.365 141.688C845.077 142.552 844.525 143.32 843.709 143.992C842.893 144.664 841.885 145 840.685 145H829.885L871.141 41.824H885.253L926.509 145ZM992.858 57.952C992.426 58.672 991.946 59.224 991.418 59.608C990.938 59.944 990.338 60.112 989.618 60.112C988.802 60.112 987.842 59.704 986.738 58.888C985.634 58.072 984.242 57.184 982.562 56.224C980.93 55.216 978.938 54.304 976.586 53.488C974.282 52.672 971.474 52.264 968.162 52.264C965.042 52.264 962.282 52.696 959.882 53.56C957.53 54.376 955.538 55.504 953.906 56.944C952.322 58.384 951.122 60.088 950.306 62.056C949.49 63.976 949.082 66.064 949.082 68.32C949.082 71.2 949.778 73.6 951.17 75.52C952.61 77.392 954.482 79 956.786 80.344C959.138 81.688 961.778 82.864 964.706 83.872C967.682 84.832 970.706 85.84 973.778 86.896C976.898 87.952 979.922 89.152 982.85 90.496C985.826 91.792 988.466 93.448 990.77 95.464C993.122 97.48 994.994 99.952 996.386 102.88C997.826 105.808 998.546 109.408 998.546 113.68C998.546 118.192 997.778 122.44 996.242 126.424C994.706 130.36 992.45 133.792 989.474 136.72C986.546 139.648 982.922 141.952 978.602 143.632C974.33 145.312 969.458 146.152 963.986 146.152C957.266 146.152 951.17 144.952 945.698 142.552C940.226 140.104 935.546 136.816 931.658 132.688L935.69 126.064C936.074 125.536 936.53 125.104 937.058 124.768C937.634 124.384 938.258 124.192 938.93 124.192C939.554 124.192 940.25 124.456 941.018 124.984C941.834 125.464 942.746 126.088 943.754 126.856C944.762 127.624 945.914 128.464 947.21 129.376C948.506 130.288 949.97 131.128 951.602 131.896C953.282 132.664 955.178 133.312 957.29 133.84C959.402 134.32 961.778 134.56 964.418 134.56C967.73 134.56 970.682 134.104 973.274 133.192C975.866 132.28 978.05 131.008 979.826 129.376C981.65 127.696 983.042 125.704 984.002 123.4C984.962 121.096 985.442 118.528 985.442 115.696C985.442 112.576 984.722 110.032 983.282 108.064C981.89 106.048 980.042 104.368 977.738 103.024C975.434 101.68 972.794 100.552 969.818 99.64C966.842 98.68 963.818 97.72 960.746 96.76C957.674 95.752 954.65 94.6 951.674 93.304C948.698 92.008 946.058 90.328 943.754 88.264C941.45 86.2 939.578 83.632 938.138 80.56C936.746 77.44 936.05 73.6 936.05 69.04C936.05 65.392 936.746 61.864 938.138 58.456C939.578 55.048 941.642 52.024 944.33 49.384C947.066 46.744 950.402 44.632 954.338 43.048C958.322 41.464 962.882 40.672 968.018 40.672C973.778 40.672 979.01 41.584 983.714 43.408C988.466 45.232 992.642 47.872 996.242 51.328L992.858 57.952Z" fill="white"/>
<circle cx="106.465" cy="88.6316" r="66.8749" fill="white"/>
<path fill-rule="evenodd" clip-rule="evenodd" d="M120.962 122.293L154.197 135.825L140.275 102.781L173.34 88.8681L140.148 75.3369L153.688 42.1237L120.623 56.0368L106.701 22.9509L93.161 56.164L59.9266 42.6327L73.8486 75.6762L40.7839 89.5892L74.0184 103.121L60.436 136.334L93.543 122.421L107.423 155.507L120.962 122.293Z" fill="#454545"/>
</svg>
