<svg width="88" height="88" viewBox="0 0 88 88" fill="none" xmlns="http://www.w3.org/2000/svg">
<circle cx="44" cy="44" r="39.5" stroke="#DF5555" stroke-width="9"/>
<path d="M49.6602 6.02734V25H44.7266V17.0312H43.25V25H38.3164V6.02734H43.25V12.8125H44.7266V6.02734H49.6602ZM37.7656 43.3008H32.832V39.9961C32.832 39.0352 32.7773 38.4375 32.668 38.2031C32.5664 37.9609 32.3359 37.8398 31.9766 37.8398C31.5703 37.8398 31.3125 37.9844 31.2031 38.2734C31.0938 38.5625 31.0391 39.1875 31.0391 40.1484V48.9609C31.0391 49.8828 31.0938 50.4844 31.2031 50.7656C31.3125 51.0469 31.5586 51.1875 31.9414 51.1875C32.3086 51.1875 32.5469 51.0469 32.6562 50.7656C32.7734 50.4844 32.832 49.8242 32.832 48.7852V46.4062H37.7656V47.1445C37.7656 49.1055 37.625 50.4961 37.3438 51.3164C37.0703 52.1367 36.457 52.8555 35.5039 53.4727C34.5586 54.0898 33.3906 54.3984 32 54.3984C30.5547 54.3984 29.3633 54.1367 28.4258 53.6133C27.4883 53.0898 26.8672 52.3672 26.5625 51.4453C26.2578 50.5156 26.1055 49.1211 26.1055 47.2617V41.7188C26.1055 40.3516 26.1523 39.3281 26.2461 38.6484C26.3398 37.9609 26.6172 37.3008 27.0781 36.668C27.5469 36.0352 28.1914 35.5391 29.0117 35.1797C29.8398 34.8125 30.7891 34.6289 31.8594 34.6289C33.3125 34.6289 34.5117 34.9102 35.457 35.4727C36.4023 36.0352 37.0234 36.7383 37.3203 37.582C37.6172 38.418 37.7656 39.7227 37.7656 41.4961V43.3008ZM49.4727 35.0273V38.8242H46.543V54H41.6094V38.8242H38.6914V35.0273H49.4727ZM61.8711 46.1367C61.8711 48.043 61.8242 49.3945 61.7305 50.1914C61.6445 50.9805 61.3633 51.7031 60.8867 52.3594C60.418 53.0156 59.7812 53.5195 58.9766 53.8711C58.1719 54.2227 57.2344 54.3984 56.1641 54.3984C55.1484 54.3984 54.2344 54.2344 53.4219 53.9062C52.6172 53.5703 51.9688 53.0703 51.4766 52.4062C50.9844 51.7422 50.6914 51.0195 50.5977 50.2383C50.5039 49.457 50.457 48.0898 50.457 46.1367V42.8906C50.457 40.9844 50.5 39.6367 50.5859 38.8477C50.6797 38.0508 50.9609 37.3242 51.4297 36.668C51.9062 36.0117 52.5469 35.5078 53.3516 35.1562C54.1562 34.8047 55.0938 34.6289 56.1641 34.6289C57.1797 34.6289 58.0898 34.7969 58.8945 35.1328C59.707 35.4609 60.3594 35.957 60.8516 36.6211C61.3438 37.2852 61.6367 38.0078 61.7305 38.7891C61.8242 39.5703 61.8711 40.9375 61.8711 42.8906V46.1367ZM56.9375 39.9023C56.9375 39.0195 56.8867 38.457 56.7852 38.2148C56.6914 37.9648 56.4922 37.8398 56.1875 37.8398C55.9297 37.8398 55.7305 37.9414 55.5898 38.1445C55.457 38.3398 55.3906 38.9258 55.3906 39.9023V48.7617C55.3906 49.8633 55.4336 50.543 55.5195 50.8008C55.6133 51.0586 55.8242 51.1875 56.1523 51.1875C56.4883 51.1875 56.7031 51.0391 56.7969 50.7422C56.8906 50.4453 56.9375 49.7383 56.9375 48.6211V39.9023ZM49.6602 64.0273V83H44.7266V75.0312H43.25V83H38.3164V64.0273H43.25V70.8125H44.7266V64.0273H49.6602Z" fill="#DF5555"/>
</svg>
