<svg width="136" height="45" viewBox="0 0 136 45" fill="none" xmlns="http://www.w3.org/2000/svg">
<circle cx="22" cy="22" r="19.75" stroke="#DF5555" stroke-width="4.5"/>
<path d="M25.3301 2.51367V12H22.8633V8.01562H22.125V12H19.6582V2.51367H22.125V5.90625H22.8633V2.51367H25.3301ZM19.3828 21.6504H16.916V19.998C16.916 19.5176 16.8887 19.2188 16.834 19.1016C16.7832 18.9805 16.668 18.9199 16.4883 18.9199C16.2852 18.9199 16.1562 18.9922 16.1016 19.1367C16.0469 19.2812 16.0195 19.5938 16.0195 20.0742V24.4805C16.0195 24.9414 16.0469 25.2422 16.1016 25.3828C16.1562 25.5234 16.2793 25.5938 16.4707 25.5938C16.6543 25.5938 16.7734 25.5234 16.8281 25.3828C16.8867 25.2422 16.916 24.9121 16.916 24.3926V23.2031H19.3828V23.5723C19.3828 24.5527 19.3125 25.248 19.1719 25.6582C19.0352 26.0684 18.7285 26.4277 18.252 26.7363C17.7793 27.0449 17.1953 27.1992 16.5 27.1992C15.7773 27.1992 15.1816 27.0684 14.7129 26.8066C14.2441 26.5449 13.9336 26.1836 13.7812 25.7227C13.6289 25.2578 13.5527 24.5605 13.5527 23.6309V20.8594C13.5527 20.1758 13.5762 19.6641 13.623 19.3242C13.6699 18.9805 13.8086 18.6504 14.0391 18.334C14.2734 18.0176 14.5957 17.7695 15.0059 17.5898C15.4199 17.4062 15.8945 17.3145 16.4297 17.3145C17.1562 17.3145 17.7559 17.4551 18.2285 17.7363C18.7012 18.0176 19.0117 18.3691 19.1602 18.791C19.3086 19.209 19.3828 19.8613 19.3828 20.748V21.6504ZM25.2363 17.5137V19.4121H23.7715V27H21.3047V19.4121H19.8457V17.5137H25.2363ZM31.4355 23.0684C31.4355 24.0215 31.4121 24.6973 31.3652 25.0957C31.3223 25.4902 31.1816 25.8516 30.9434 26.1797C30.709 26.5078 30.3906 26.7598 29.9883 26.9355C29.5859 27.1113 29.1172 27.1992 28.582 27.1992C28.0742 27.1992 27.6172 27.1172 27.2109 26.9531C26.8086 26.7852 26.4844 26.5352 26.2383 26.2031C25.9922 25.8711 25.8457 25.5098 25.7988 25.1191C25.752 24.7285 25.7285 24.0449 25.7285 23.0684V21.4453C25.7285 20.4922 25.75 19.8184 25.793 19.4238C25.8398 19.0254 25.9805 18.6621 26.2148 18.334C26.4531 18.0059 26.7734 17.7539 27.1758 17.5781C27.5781 17.4023 28.0469 17.3145 28.582 17.3145C29.0898 17.3145 29.5449 17.3984 29.9473 17.5664C30.3535 17.7305 30.6797 17.9785 30.9258 18.3105C31.1719 18.6426 31.3184 19.0039 31.3652 19.3945C31.4121 19.7852 31.4355 20.4688 31.4355 21.4453V23.0684ZM28.9688 19.9512C28.9688 19.5098 28.9434 19.2285 28.8926 19.1074C28.8457 18.9824 28.7461 18.9199 28.5938 18.9199C28.4648 18.9199 28.3652 18.9707 28.2949 19.0723C28.2285 19.1699 28.1953 19.4629 28.1953 19.9512V24.3809C28.1953 24.9316 28.2168 25.2715 28.2598 25.4004C28.3066 25.5293 28.4121 25.5938 28.5762 25.5938C28.7441 25.5938 28.8516 25.5195 28.8984 25.3711C28.9453 25.2227 28.9688 24.8691 28.9688 24.3105V19.9512ZM25.3301 32.5137V42H22.8633V38.0156H22.125V42H19.6582V32.5137H22.125V35.9062H22.8633V32.5137H25.3301Z" fill="#DF5555"/>
<path d="M70.4102 30H66.8945V22.6875H60.0391V30H56.5234V12.9375H60.0391V19.8516H66.8945V12.9375H70.4102V30ZM86.8867 24.3164C86.7539 26.1523 86.0742 27.5977 84.8477 28.6523C83.6289 29.707 82.0195 30.2344 80.0195 30.2344C77.832 30.2344 76.1094 29.5 74.8516 28.0312C73.6016 26.5547 72.9766 24.5312 72.9766 21.9609V20.918C72.9766 19.2773 73.2656 17.832 73.8438 16.582C74.4219 15.332 75.2461 14.375 76.3164 13.7109C77.3945 13.0391 78.6445 12.7031 80.0664 12.7031C82.0352 12.7031 83.6211 13.2305 84.8242 14.2852C86.0273 15.3398 86.7227 16.8203 86.9102 18.7266H83.3945C83.3086 17.625 83 16.8281 82.4688 16.3359C81.9453 15.8359 81.1445 15.5859 80.0664 15.5859C78.8945 15.5859 78.0156 16.0078 77.4297 16.8516C76.8516 17.6875 76.5547 18.9883 76.5391 20.7539V22.043C76.5391 23.8867 76.8164 25.2344 77.3711 26.0859C77.9336 26.9375 78.8164 27.3633 80.0195 27.3633C81.1055 27.3633 81.9141 27.1172 82.4453 26.625C82.9844 26.125 83.293 25.3555 83.3711 24.3164H86.8867ZM101.688 15.7852H96.4609V30H92.9453V15.7852H87.7891V12.9375H101.688V15.7852ZM117.391 21.8555C117.391 23.5352 117.094 25.0078 116.5 26.2734C115.906 27.5391 115.055 28.5156 113.945 29.2031C112.844 29.8906 111.578 30.2344 110.148 30.2344C108.734 30.2344 107.473 29.8945 106.363 29.2148C105.254 28.5352 104.395 27.5664 103.785 26.3086C103.176 25.043 102.867 23.5898 102.859 21.9492V21.1055C102.859 19.4258 103.16 17.9492 103.762 16.6758C104.371 15.3945 105.227 14.4141 106.328 13.7344C107.438 13.0469 108.703 12.7031 110.125 12.7031C111.547 12.7031 112.809 13.0469 113.91 13.7344C115.02 14.4141 115.875 15.3945 116.477 16.6758C117.086 17.9492 117.391 19.4219 117.391 21.0938V21.8555ZM113.828 21.082C113.828 19.293 113.508 17.9336 112.867 17.0039C112.227 16.0742 111.312 15.6094 110.125 15.6094C108.945 15.6094 108.035 16.0703 107.395 16.9922C106.754 17.9062 106.43 19.25 106.422 21.0234V21.8555C106.422 23.5977 106.742 24.9492 107.383 25.9102C108.023 26.8711 108.945 27.3516 110.148 27.3516C111.328 27.3516 112.234 26.8906 112.867 25.9688C113.5 25.0391 113.82 23.6875 113.828 21.9141V21.082ZM133.832 30H130.316V22.6875H123.461V30H119.945V12.9375H123.461V19.8516H130.316V12.9375H133.832V30Z" fill="#DF5555"/>
</svg>
