<svg width="88" height="88" viewBox="0 0 88 88" fill="none" xmlns="http://www.w3.org/2000/svg">
<path d="M53.4539 58.5055L49.7509 56.9979L48.2415 60.7002L44.6404 69.5338L40.9476 60.731L39.3993 57.0401L35.7094 58.5908L26.887 62.2983L30.5035 53.4549L32.0199 49.7468L28.3095 48.2361L19.458 44.6322L28.2616 40.9279L31.9502 39.3758L30.3964 35.6879L26.6889 26.8883L35.5461 30.4945L39.2491 32.0021L40.7585 28.2998L44.3653 19.4524L48.0768 28.273L49.6282 31.9599L53.3151 30.4085L62.1244 26.7017L58.5176 35.5492L57.0075 39.2532L60.7116 40.7632L69.5476 44.3654L60.7384 48.0721L57.0498 49.6242L58.6036 53.3121L62.3111 62.1117L53.4539 58.5055Z" stroke="#303039" stroke-width="8"/>
<path d="M44 83.5C65.8152 83.5 83.5 65.8152 83.5 44C83.5 22.1848 65.8152 4.5 44 4.5C22.1848 4.5 4.5 22.1848 4.5 44C4.5 65.8152 22.1848 83.5 44 83.5Z" stroke="#303039" stroke-width="9"/>
</svg>
