<svg width="88" height="88" viewBox="0 0 88 88" fill="none" xmlns="http://www.w3.org/2000/svg">
<circle cx="44" cy="44" r="39.5" stroke="#DF5555" stroke-width="9"/>
<path d="M32.684 34.55H38.112V30.502H49.428V34.55H54.902V30.502H64.424V25.488H54.902V22.084H49.428V25.488H38.112V22.084H32.684V25.488H23.668V30.502H32.684V34.55ZM32.086 52.766C30.384 55.848 27.118 58.838 23.714 60.678C25.048 61.506 27.44 63.208 28.498 64.312C31.902 62.012 35.628 58.286 37.79 54.376L32.086 52.766ZM30.706 46.464C36.18 43.888 41.194 40.484 43.908 37.08C46.944 40.668 52.372 44.072 57.754 46.464H46.53V41.91H41.01V46.464H30.706ZM58.536 51.524V46.786C60.1 47.476 61.618 48.028 63.09 48.488C63.826 46.97 64.93 44.9 66.172 43.52C58.858 41.864 51.498 38.184 46.484 32.388H40.872C37.192 37.126 30.016 41.818 22.196 44.072C23.162 45.268 24.404 47.338 24.956 48.764C26.474 48.258 27.992 47.66 29.51 47.016V51.524H41.01V65.002H46.53V51.524H58.536ZM49.934 55.434C53.154 58.01 57.156 61.69 58.95 63.99L63.734 60.816C61.664 58.424 57.524 54.928 54.396 52.628L49.934 55.434Z" fill="#DF5555"/>
</svg>
